Coordinates
version=1
nRows=15
nColumns=63
inDegrees=yes

Units are S.I. units (second, meters, Newtons, ...)
If the header above contains a line with 'inDegrees', this indicates whether rotational values are in degrees (yes) or radians (no).

endheader
time	pelvis_tilt	pelvis_list	pelvis_rotation	pelvis_tx	pelvis_ty	pelvis_tz	hip_flexion_r	hip_adduction_r	hip_rotation_r	knee_angle_r	knee_angle_r_beta	ankle_angle_r	subtalar_angle_r	mtp_angle_r	hip_flexion_l	hip_adduction_l	hip_rotation_l	knee_angle_l	knee_angle_l_beta	ankle_angle_l	subtalar_angle_l	mtp_angle_l	L5_S1_Flex_Ext	L5_S1_Lat_Bending	L5_S1_axial_rotation	L4_L5_Flex_Ext	L4_L5_Lat_Bending	L4_L5_axial_rotation	L3_L4_Flex_Ext	L3_L4_Lat_Bending	L3_L4_axial_rotation	L2_L3_Flex_Ext	L2_L3_Lat_Bending	L2_L3_axial_rotation	L1_L2_Flex_Ext	L1_L2_Lat_Bending	L1_L2_axial_rotation	L1_T12_Flex_Ext	L1_T12_Lat_Bending	L1_T12_axial_rotation	Abs_r3	Abs_r2	Abs_r1	Abs_t1	Abs_t2	neck_flexion	neck_bending	neck_rotation	arm_flex_r	arm_add_r	arm_rot_r	elbow_flex_r	pro_sup_r	wrist_flex_r	wrist_dev_r	arm_flex_l	arm_add_l	arm_rot_l	elbow_flex_l	pro_sup_l	wrist_flex_l	wrist_dev_l
0.000000	5.662808	-3.152803	90.842883	0.142550	0.897674	0.397170	4.034717	-1.047215	-22.623428	19.816483	0.345863	30.458896	18.761628	0.000000	6.905987	-4.892368	-10.063083	22.582695	0.394142	32.017285	3.524740	0.000000	0.201449	0.175570	2.403206	0.374110	0.233508	2.553406	0.330960	0.426881	2.553406	0.230236	0.426881	2.102805	0.187065	0.358023	1.952605	0.115108	0.271958	1.802405	1.438928	1.986085	13.365911	0.000000	0.000000	27.563068	-3.623324	-13.908109	6.329816	-9.928726	59.913029	47.863690	69.236824	3.567990	0.879417	8.157388	-7.962957	50.655458	50.817657	89.372115	41.598614	23.800389
0.016949	5.712401	-3.209363	90.687259	0.144041	0.896065	0.397796	4.223585	-0.944741	-22.768641	20.098503	0.350785	31.241518	18.767480	0.000000	7.215291	-5.100769	-10.121172	23.083783	0.402888	31.854103	3.176862	0.000000	0.208413	0.170149	2.327390	0.387043	0.226298	2.472852	0.342401	0.413699	2.472852	0.238195	0.413699	2.036466	0.193532	0.346967	1.891004	0.119087	0.263560	1.745542	1.488670	1.924755	12.944244	0.000000	0.000000	27.672621	-3.610883	-13.446671	7.210047	-9.141440	63.693575	45.820004	70.354305	1.695703	-3.259160	6.424042	-8.179373	47.497442	52.290795	87.713195	34.172973	23.051999
0.033898	5.666451	-3.294966	90.568379	0.145273	0.894658	0.398466	4.442033	-0.966948	-22.928800	20.363299	0.355407	31.916756	18.775689	0.000000	7.515872	-5.177496	-10.138962	23.488757	0.409956	31.738108	2.927246	0.000000	0.215281	0.154728	2.276910	0.399799	0.205788	2.419217	0.353686	0.376205	2.419217	0.246045	0.376205	1.992296	0.199910	0.315520	1.849990	0.123012	0.239673	1.707683	1.537732	1.750309	12.663492	0.000000	0.000000	27.763639	-3.649117	-13.223367	7.880194	-8.475769	66.065621	44.234780	71.124650	0.236505	-6.325113	5.333069	-8.347204	45.365958	53.342192	86.057191	27.999630	22.194976
0.050847	5.535453	-3.406003	90.482088	0.146265	0.893437	0.399175	4.685981	-1.100006	-23.098941	20.610680	0.359724	32.493885	18.785963	0.000000	7.807280	-5.135711	-10.118243	23.804836	0.415473	31.663313	2.762459	0.000000	0.221971	0.130502	2.249512	0.412222	0.173568	2.390107	0.364676	0.317303	2.390107	0.253690	0.317303	1.968323	0.206122	0.266120	1.827729	0.126834	0.202148	1.687134	1.585515	1.476268	12.511111	0.000000	0.000000	27.837452	-3.729535	-13.211178	8.363689	-7.924590	67.166753	43.069550	71.591337	-0.838252	-8.402930	4.823957	-8.474848	44.179075	54.009722	84.436530	22.963323	21.230132
0.067797	5.329904	-3.538864	90.424235	0.147038	0.892388	0.399918	4.951350	-1.330087	-23.274099	20.840455	0.363735	32.982178	18.798010	0.000000	8.089065	-4.988579	-10.060803	24.039239	0.419564	31.623732	2.669070	0.000000	0.228397	0.098668	2.242940	0.424157	0.131228	2.383124	0.375234	0.239901	2.383124	0.261035	0.239901	1.962572	0.212090	0.201203	1.822389	0.130506	0.152836	1.682205	1.631419	1.116150	12.474559	0.000000	0.000000	27.895390	-3.843647	-13.383086	8.683962	-7.480782	67.134557	42.285844	71.797842	-1.557217	-9.577099	4.836197	-8.570701	43.854863	54.331260	82.883640	18.948790	20.158283
0.084746	5.060300	-3.689942	90.390666	0.147612	0.891497	0.400689	5.234061	-1.643363	-23.449310	21.052432	0.367434	33.390909	18.811540	0.000000	8.360776	-4.749262	-9.968430	24.199184	0.422355	31.613376	2.633648	0.000000	0.234477	0.060419	2.254939	0.435446	0.080358	2.395872	0.385222	0.146904	2.395872	0.267983	0.146904	1.973071	0.217735	0.123207	1.832138	0.133980	0.093590	1.691204	1.674843	0.683475	12.541293	0.000000	0.000000	27.938783	-3.982963	-13.712073	8.864446	-7.137225	66.106617	41.845194	71.787643	-1.949039	-9.932110	5.309277	-8.643157	44.311393	54.344679	81.430946	15.840769	18.980244
0.101695	4.737138	-3.855626	90.377228	0.148008	0.890750	0.401483	5.530036	-2.026004	-23.619610	21.246419	0.370820	33.729353	18.826259	0.000000	8.621964	-4.430925	-9.842914	24.291890	0.423973	31.626259	2.642759	0.000000	0.240125	0.016952	2.283253	0.445936	0.022546	2.425957	0.394501	0.041217	2.425957	0.274439	0.041217	1.997847	0.222980	0.034569	1.855143	0.137207	0.026259	1.712440	1.715188	0.191765	12.698769	0.000000	0.000000	27.968960	-4.138993	-14.171120	8.928571	-6.886797	64.220521	41.709131	71.604217	-2.042366	-9.552450	6.182686	-8.700614	45.466733	54.087855	80.110877	13.523997	17.696828
0.118644	4.370915	-4.032308	90.379768	0.148245	0.890132	0.402294	5.835195	-2.464183	-23.780033	21.422225	0.373888	34.006784	18.841877	0.000000	8.872178	-4.046731	-9.686042	24.324575	0.424544	31.656395	2.682973	0.000000	0.245258	-0.030539	2.325628	0.455469	-0.040617	2.470980	0.402934	-0.074252	2.470980	0.280305	-0.074252	2.034924	0.227747	-0.062275	1.889573	0.140140	-0.047305	1.744221	1.751853	-0.345463	12.934445	0.000000	0.000000	27.987252	-4.303245	-14.733209	8.899769	-6.722376	61.613852	41.839186	71.291041	-1.865846	-8.522608	7.395913	-8.751466	47.238954	53.598659	78.955859	11.883213	16.308852
0.135593	3.972126	-4.216380	90.394133	0.148345	0.889628	0.403117	6.145458	-2.944071	-23.925616	21.579658	0.376636	34.232474	18.858102	0.000000	9.110968	-3.609844	-9.499602	24.304458	0.424193	31.697796	2.740858	0.000000	0.249792	-0.080858	2.379808	0.463889	-0.107542	2.528546	0.410383	-0.196599	2.528546	0.285487	-0.196599	2.082332	0.231957	-0.164887	1.933594	0.142731	-0.125250	1.784856	1.784239	-0.914687	13.235777	0.000000	0.000000	27.994989	-4.467230	-15.371320	8.801471	-6.636842	58.424198	42.196890	70.891592	-1.448128	-6.927071	8.888448	-8.804109	49.546125	52.914968	77.998320	10.803153	14.817128
0.152542	3.551269	-4.404231	90.416170	0.148326	0.889225	0.403945	6.456748	-3.451839	-24.051393	21.718527	0.379060	34.415700	18.874643	0.000000	9.337884	-3.133427	-9.285384	24.238758	0.423046	31.744475	2.802982	0.000000	0.253643	-0.132811	2.443537	0.471040	-0.176639	2.596259	0.416710	-0.322917	2.596259	0.289888	-0.322917	2.138095	0.235533	-0.270829	1.985374	0.144932	-0.205725	1.832653	1.811746	-1.502388	13.590222	0.000000	0.000000	27.993501	-4.622458	-16.058437	8.657109	-6.623073	54.789142	42.743775	70.449349	-0.817860	-4.850330	10.599779	-8.866940	52.306317	52.074654	77.270686	10.168557	13.222473
0.169492	3.118840	-4.592252	90.441726	0.148210	0.888907	0.404773	6.764985	-3.973659	-24.152401	21.838640	0.381156	34.565734	18.891207	0.000000	9.552475	-2.630643	-9.045175	24.134692	0.421230	31.790446	2.855913	0.000000	0.256727	-0.185202	2.514562	0.476767	-0.246319	2.671722	0.421776	-0.450301	2.671722	0.293413	-0.450301	2.200241	0.238396	-0.377665	2.043081	0.146694	-0.286878	1.885921	1.833773	-2.095046	13.985238	0.000000	0.000000	27.984117	-4.760437	-16.767539	8.490113	-6.673948	50.846272	43.441371	70.007788	-0.003691	-2.376871	12.469395	-8.948355	55.437599	51.115592	76.805384	9.864161	11.525700
0.186441	2.686754	-4.775768	90.441401	0.148067	0.888637	0.405624	7.078192	-4.489741	-24.193291	21.945828	0.383027	34.728571	18.908453	0.000000	9.753864	-2.115413	-8.760034	23.991318	0.418727	31.794051	2.814419	0.000000	0.258143	-0.237632	2.603862	0.479398	-0.316050	2.766603	0.424104	-0.577777	2.766603	0.295032	-0.577777	2.278379	0.239712	-0.484578	2.115637	0.147503	-0.368091	1.952896	1.843893	-2.688135	14.481897	0.000000	0.000000	27.964528	-4.863436	-17.559330	8.399564	-6.791184	47.116178	44.192104	69.786078	0.975983	0.370047	14.505879	-9.046178	59.531894	50.124474	76.949531	8.734713	9.260495
0.203390	2.265728	-4.951455	90.433450	0.147875	0.888436	0.406465	7.378620	-4.988535	-24.189296	22.036043	0.384602	34.876652	18.924529	0.000000	9.948968	-1.601585	-8.438556	23.828770	0.415890	31.793632	2.725196	0.000000	0.258462	-0.287618	2.701862	0.479991	-0.382532	2.870728	0.424628	-0.699315	2.870728	0.295397	-0.699315	2.364129	0.240008	-0.586511	2.195263	0.147685	-0.445521	2.026396	1.846171	-3.253595	15.026945	0.000000	0.000000	27.942709	-4.930541	-18.277986	8.277640	-6.971311	43.165258	45.061821	69.636501	2.135496	3.408147	16.694789	-9.197974	63.996854	49.023106	77.572335	7.950237	6.831186
0.220339	1.864762	-5.112188	90.423911	0.147629	0.888286	0.407292	7.656758	-5.460803	-24.148427	22.109632	0.385886	35.018130	18.938966	0.000000	10.134133	-1.102121	-8.100764	23.660176	0.412948	31.784223	2.602730	0.000000	0.257493	-0.334000	2.797514	0.478190	-0.444220	2.972359	0.423035	-0.812087	2.972359	0.294288	-0.812087	2.447825	0.239108	-0.681092	2.272980	0.147131	-0.517366	2.098136	1.839245	-3.778272	15.558936	0.000000	0.000000	27.919895	-4.946102	-18.882717	8.187259	-7.187521	39.198788	45.970827	69.567457	3.445401	6.630036	18.843372	-9.419346	68.318039	47.889453	78.747371	7.634431	4.439877
0.237288	1.502600	-5.259220	90.405510	0.147337	0.888156	0.408072	7.907846	-5.882309	-24.066407	22.154515	0.386669	35.161785	18.952131	0.000000	10.304813	-0.632829	-7.739343	23.483613	0.409866	31.762208	2.406058	0.000000	0.256773	-0.374085	2.878776	0.476853	-0.497533	3.058700	0.421852	-0.909551	3.058700	0.293466	-0.909551	2.518929	0.238439	-0.762835	2.339006	0.146720	-0.579458	2.159082	1.834104	-4.231727	16.010890	0.000000	0.000000	27.895684	-4.904950	-19.299202	8.205965	-7.417651	35.524524	46.853392	69.537093	4.783497	9.831087	20.718372	-9.726912	72.062825	46.854938	80.315329	7.559820	2.196087
